<?xml version="1.0" encoding="utf-8"?>
<!-- Generator: Adobe Illustrator 17.1.0, SVG Export Plug-In . SVG Version: 6.00 Build 0)  -->
<!DOCTYPE svg PUBLIC "-//W3C//DTD SVG 1.1//EN" "http://www.w3.org/Graphics/SVG/1.1/DTD/svg11.dtd">
<svg version="1.1" id="Layer_1" xmlns="http://www.w3.org/2000/svg" xmlns:xlink="http://www.w3.org/1999/xlink" x="0px" y="0px"
	 viewBox="0 0 442.3 158.1" enable-background="new 0 0 442.3 158.1" xml:space="preserve">
<g>
	<polyline fill="#58595B" points="371.5,41.4 372.3,21.4 392.3,15 421.6,15 440.8,21.4 442.3,41.4 	"/>
	<polygon fill="#808285" points="442.3,45.8 440.8,47.2 372.3,47.2 371.2,46.1 371.2,22.4 372.3,21.4 440.8,21.4 442.3,22.4 	"/>
	<g>
		<line fill="none" stroke="#414042" stroke-miterlimit="10" x1="420.7" y1="40" x2="431.4" y2="40"/>
		<line fill="none" stroke="#414042" stroke-miterlimit="10" x1="420.7" y1="38.6" x2="431.4" y2="38.6"/>
		<line fill="none" stroke="#414042" stroke-miterlimit="10" x1="420.7" y1="37.1" x2="431.4" y2="37.1"/>
		<line fill="none" stroke="#414042" stroke-miterlimit="10" x1="420.7" y1="35.6" x2="431.4" y2="35.6"/>
		<line fill="none" stroke="#414042" stroke-miterlimit="10" x1="420.7" y1="34.2" x2="431.4" y2="34.2"/>
		<line fill="none" stroke="#414042" stroke-miterlimit="10" x1="420.7" y1="32.7" x2="431.4" y2="32.7"/>
		<line fill="none" stroke="#414042" stroke-miterlimit="10" x1="420.7" y1="31.2" x2="431.4" y2="31.2"/>
		<line fill="none" stroke="#414042" stroke-miterlimit="10" x1="420.7" y1="29.8" x2="431.4" y2="29.8"/>
		<line fill="none" stroke="#414042" stroke-miterlimit="10" x1="420.7" y1="28.3" x2="431.4" y2="28.3"/>
	</g>
	<circle fill="#D1D3D4" cx="384.4" cy="34" r="1.8"/>
	<polygon fill="none" stroke="#58595B" stroke-miterlimit="10" points="439.4,43.6 438.2,44.7 375.5,44.7 374.5,43.6 374.5,24.8 
		375.5,23.9 438.2,23.9 439.4,24.8 	"/>
	<polygon opacity="0.15" points="442.3,40.8 442.3,22.4 440.8,21.4 421.6,15 407.2,15 407.2,47.2 440.8,47.2 442.3,45.8 442.3,41.4 
		442.3,41.4 	"/>
	<polygon opacity="0.15" points="440.8,21.4 442.3,22.4 442.3,40.8 442.3,41.4 442.3,41.4 442.3,45.8 440.8,47.2 373.8,47.2 	"/>
</g>
<g>
	<path fill="#808285" d="M72.3,42.9c0,0.2-0.1,0.3-0.3,0.3H0.3C0.1,43.2,0,43,0,42.9v-0.5c0-0.2,8.2-7.5,8.4-7.5h55.8
		c0.2,0,8.1,7.3,8.1,7.5V42.9z"/>
	<path fill="#58595B" d="M72.3,44.4c0,0.2-0.1,0.3-0.3,0.3H0.3c-0.2,0-0.3-0.1-0.3-0.3v-1.5c0-0.2,0.1-0.3,0.3-0.3H72
		c0.2,0,0.3,0.1,0.3,0.3V44.4z"/>
	<path fill="#58595B" d="M64.6,34.8c0,0.2-0.1,0.3-0.3,0.3H8.2c-0.2,0-0.3-0.1-0.3-0.3V0.3C7.9,0.1,8.1,0,8.2,0h56.1
		c0.2,0,0.3,0.1,0.3,0.3V34.8z"/>
	<path fill="#6D6E71" d="M63.1,31.9c0,0.2-0.1,0.3-0.3,0.3H9.7c-0.2,0-0.3-0.1-0.3-0.3V2.1c0-0.2,0.1-0.3,0.3-0.3h53.2
		c0.2,0,0.3,0.1,0.3,0.3V31.9z"/>
	<polygon fill="#58595B" points="46.3,41.5 26,41.5 26.9,39 45.4,39 	"/>
	<path opacity="0.15" d="M64.3,0H48.4L23.3,35.1h41c0.2,0,0.3-0.1,0.3-0.3V0.3C64.6,0.1,64.5,0,64.3,0z"/>
	<path opacity="0.1" d="M64.3,0h-28v35.1h28c0.2,0,0.3-0.1,0.3-0.3V0.3C64.6,0.1,64.5,0,64.3,0z"/>
	<path opacity="0.2" d="M64.2,34.9H15.3l13.3,9.8H72c0.2,0,0.3-0.1,0.3-0.3v-1.5v-0.5C72.3,42.2,64.3,34.9,64.2,34.9z"/>
</g>
<g>
	<path fill="#D1D3D4" d="M175.6,23.8c-1.1,0-2.1,0.2-3.1,0.4c0.1-0.7,0.1-1.4,0.1-2.1c0-8.5-6.9-15.4-15.4-15.4
		c-7.1,0-13.1,4.8-14.9,11.3c-1.1-0.7-2.5-1.1-3.9-1.1c-4.2,0-7.6,3.4-7.7,7.6c-1.5-0.7-3.2-1.2-4.9-1.2c-6.1,0-11.1,5-11.1,11.1
		c0,6.1,5,11.1,11.1,11.1h49.8c6,0,10.9-4.9,10.9-10.9S181.6,23.8,175.6,23.8z"/>
	<path opacity="0.15" d="M150.6,45.4h25c6,0,10.9-4.9,10.9-10.9s-4.9-10.9-10.9-10.9c-1.1,0-2.1,0.2-3.1,0.4
		c0.1-0.7,0.1-1.4,0.1-2.1c0-8.5-6.9-15.4-15.4-15.4c-2.4,0-4.7,0.5-6.7,1.5"/>
	<path opacity="0.15" d="M133.9,45.4h41.7c6,0,10.9-4.9,10.9-10.9s-4.9-10.9-10.9-10.9c-1.1,0-2.1,0.2-3.1,0.4
		c0.1-0.7,0.1-1.4,0.1-2.1c0-6.2-3.6-11.5-8.8-14"/>
</g>
<line fill="none" stroke="#808285" stroke-miterlimit="10" x1="73.8" y1="23.4" x2="107.3" y2="23.4"/>
<line fill="none" stroke="#808285" stroke-miterlimit="10" x1="193.8" y1="23.3" x2="227.3" y2="23.3"/>
<line fill="none" stroke="#808285" stroke-miterlimit="10" x1="323.8" y1="23.3" x2="357.3" y2="23.3"/>
<g>
	<path fill="#939598" d="M372.2,58.1h1.6l1.4,4.7l1.6-4.8h1.3l1.6,4.8l1.4-4.7h1.6l-2.4,7h-1.3l-1.6-4.6l-1.6,4.6h-1.3L372.2,58.1z"
		/>
	<path fill="#939598" d="M384,58.1h5.3v1.4h-3.7v1.4h3.3v1.4h-3.3v1.5h3.8v1.4H384V58.1z"/>
	<path fill="#939598" d="M390.7,58.1h3.2c0.8,0,1.4,0.2,1.8,0.6c0.3,0.3,0.5,0.7,0.5,1.2v0c0,0.8-0.4,1.2-0.9,1.5
		c0.8,0.3,1.3,0.8,1.3,1.7v0c0,1.3-1,1.9-2.6,1.9h-3.3V58.1z M394.7,60.2c0-0.5-0.4-0.7-1-0.7h-1.5v1.5h1.4
		C394.3,60.9,394.7,60.7,394.7,60.2L394.7,60.2z M394,62.2h-1.8v1.5h1.8c0.7,0,1.1-0.2,1.1-0.8v0C395.1,62.5,394.8,62.2,394,62.2z"
		/>
	<path fill="#939598" d="M400.4,64.1l0.9-1.1c0.6,0.5,1.3,0.8,2.1,0.8c0.6,0,1-0.2,1-0.7v0c0-0.4-0.2-0.6-1.4-0.9
		c-1.4-0.4-2.3-0.8-2.3-2.1v0c0-1.3,1-2.1,2.4-2.1c1,0,1.9,0.3,2.6,0.9L405,60c-0.6-0.4-1.2-0.7-1.8-0.7s-0.9,0.3-0.9,0.6v0
		c0,0.5,0.3,0.6,1.5,0.9c1.4,0.4,2.2,0.9,2.2,2.1v0c0,1.4-1.1,2.2-2.6,2.2C402.3,65.2,401.3,64.8,400.4,64.1z"/>
	<path fill="#939598" d="M407.3,58.1h5.3v1.4h-3.7v1.4h3.3v1.4h-3.3v1.5h3.8v1.4h-5.3V58.1z"/>
	<path fill="#939598" d="M414,58.1h3.2c0.9,0,1.6,0.2,2,0.7c0.4,0.4,0.6,0.9,0.6,1.6v0c0,1.1-0.6,1.8-1.5,2.2l1.7,2.5h-1.8l-1.5-2.2
		h-1.2v2.2H414V58.1z M417.1,61.5c0.8,0,1.2-0.4,1.2-1v0c0-0.7-0.5-1-1.2-1h-1.5v2H417.1z"/>
	<path fill="#939598" d="M420.4,58.1h1.7L424,63l1.8-4.9h1.7l-2.8,7h-1.4L420.4,58.1z"/>
	<path fill="#939598" d="M428.5,58.1h5.3v1.4h-3.7v1.4h3.3v1.4h-3.3v1.5h3.8v1.4h-5.3V58.1z"/>
	<path fill="#939598" d="M435.2,58.1h3.2c0.9,0,1.6,0.2,2,0.7c0.4,0.4,0.6,0.9,0.6,1.6v0c0,1.1-0.6,1.8-1.5,2.2l1.7,2.5h-1.8
		l-1.5-2.2h-1.2v2.2h-1.5V58.1z M438.3,61.5c0.8,0,1.2-0.4,1.2-1v0c0-0.7-0.5-1-1.2-1h-1.5v2H438.3z"/>
</g>
<g>
	<polyline fill="#58595B" points="239.6,41.4 240.4,21.4 260.3,15 289.7,15 308.9,21.4 310.4,41.4 	"/>
	<polygon fill="#808285" points="310.3,45.8 308.9,47.2 240.4,47.2 239.3,46.1 239.3,22.4 240.4,21.4 308.9,21.4 310.3,22.4 	"/>
	<g>
		<line fill="none" stroke="#414042" stroke-miterlimit="10" x1="288.8" y1="40" x2="299.4" y2="40"/>
		<line fill="none" stroke="#414042" stroke-miterlimit="10" x1="288.8" y1="38.6" x2="299.4" y2="38.6"/>
		<line fill="none" stroke="#414042" stroke-miterlimit="10" x1="288.8" y1="37.1" x2="299.4" y2="37.1"/>
		<line fill="none" stroke="#414042" stroke-miterlimit="10" x1="288.8" y1="35.6" x2="299.4" y2="35.6"/>
		<line fill="none" stroke="#414042" stroke-miterlimit="10" x1="288.8" y1="34.2" x2="299.4" y2="34.2"/>
		<line fill="none" stroke="#414042" stroke-miterlimit="10" x1="288.8" y1="32.7" x2="299.4" y2="32.7"/>
		<line fill="none" stroke="#414042" stroke-miterlimit="10" x1="288.8" y1="31.2" x2="299.4" y2="31.2"/>
		<line fill="none" stroke="#414042" stroke-miterlimit="10" x1="288.8" y1="29.8" x2="299.4" y2="29.8"/>
		<line fill="none" stroke="#414042" stroke-miterlimit="10" x1="288.8" y1="28.3" x2="299.4" y2="28.3"/>
	</g>
	<circle fill="#D1D3D4" cx="252.4" cy="34" r="1.8"/>
	<polygon fill="none" stroke="#58595B" stroke-miterlimit="10" points="307.5,43.6 306.3,44.7 243.5,44.7 242.6,43.6 242.6,24.8 
		243.5,23.9 306.3,23.9 307.5,24.8 	"/>
	<polygon opacity="0.15" points="310.3,40.8 310.3,22.4 308.9,21.4 289.7,15 275.3,15 275.3,47.2 308.9,47.2 310.3,45.8 310.3,41.4 
		310.4,41.4 	"/>
	<polygon opacity="0.15" points="308.9,21.4 310.3,22.4 310.3,40.8 310.4,41.4 310.3,41.4 310.3,45.8 308.9,47.2 241.9,47.2 	"/>
</g>
<g>
	<path fill="#939598" d="M230.2,58.1h1.5v5.6h3.5v1.4h-5V58.1z"/>
	<path fill="#939598" d="M235.7,61.6L235.7,61.6c0-2,1.6-3.6,3.7-3.6c2.2,0,3.7,1.6,3.7,3.6v0c0,2-1.6,3.6-3.7,3.6
		C237.2,65.2,235.7,63.6,235.7,61.6z M241.5,61.6L241.5,61.6c0-1.2-0.9-2.2-2.1-2.2s-2.1,1-2.1,2.2v0c0,1.2,0.9,2.2,2.1,2.2
		S241.5,62.8,241.5,61.6z"/>
	<path fill="#939598" d="M246.4,58h1.4l3,7h-1.6l-0.6-1.6h-3l-0.6,1.6h-1.6L246.4,58z M248,62.2l-0.9-2.3l-0.9,2.3H248z"/>
	<path fill="#939598" d="M251.9,58.1h2.7c2.2,0,3.7,1.5,3.7,3.5v0c0,2-1.5,3.5-3.7,3.5h-2.7V58.1z M253.5,59.5v4.2h1.2
		c1.3,0,2.1-0.8,2.1-2.1v0c0-1.2-0.8-2.1-2.1-2.1H253.5z"/>
	<path fill="#939598" d="M262.8,58.1h3.2c0.8,0,1.4,0.2,1.8,0.6c0.3,0.3,0.5,0.7,0.5,1.2v0c0,0.8-0.4,1.2-0.9,1.5
		c0.8,0.3,1.3,0.8,1.3,1.7v0c0,1.3-1,1.9-2.6,1.9h-3.3V58.1z M266.8,60.2c0-0.5-0.4-0.7-1-0.7h-1.5v1.5h1.4
		C266.3,60.9,266.8,60.7,266.8,60.2L266.8,60.2z M266,62.2h-1.8v1.5h1.8c0.7,0,1.1-0.2,1.1-0.8v0C267.2,62.5,266.8,62.2,266,62.2z"
		/>
	<path fill="#939598" d="M272.4,58h1.4l3,7h-1.6l-0.6-1.6h-3l-0.6,1.6h-1.6L272.4,58z M274,62.2l-0.9-2.3l-0.9,2.3H274z"/>
	<path fill="#939598" d="M277.9,58.1h1.5v5.6h3.5v1.4h-5V58.1z"/>
	<path fill="#939598" d="M286.5,58h1.4l3,7h-1.6l-0.6-1.6h-3l-0.6,1.6h-1.6L286.5,58z M288.1,62.2l-0.9-2.3l-0.9,2.3H288.1z"/>
	<path fill="#939598" d="M292,58.1h1.4l3.3,4.3v-4.3h1.5v7h-1.3l-3.4-4.4v4.4H292V58.1z"/>
	<path fill="#939598" d="M299.6,61.6L299.6,61.6c0-2,1.5-3.6,3.6-3.6c1.3,0,2.1,0.4,2.8,1.1l-1,1.1c-0.5-0.5-1.1-0.8-1.8-0.8
		c-1.2,0-2,1-2,2.2v0c0,1.2,0.8,2.2,2,2.2c0.8,0,1.3-0.3,1.8-0.8l1,1c-0.7,0.8-1.5,1.2-2.9,1.2C301.1,65.2,299.6,63.6,299.6,61.6z"
		/>
	<path fill="#939598" d="M307.2,58.1h5.3v1.4h-3.7v1.4h3.3v1.4h-3.3v1.5h3.8v1.4h-5.3V58.1z"/>
	<path fill="#939598" d="M313.9,58.1h3.2c0.9,0,1.6,0.2,2,0.7c0.4,0.4,0.6,0.9,0.6,1.6v0c0,1.1-0.6,1.8-1.5,2.2l1.7,2.5h-1.8
		l-1.5-2.2h-1.2v2.2h-1.5V58.1z M317,61.5c0.8,0,1.2-0.4,1.2-1v0c0-0.7-0.5-1-1.2-1h-1.5v2H317z"/>
</g>
<g>
	<polyline fill="#77590F" points="236,134.1 236.9,112.1 258.8,105 291.2,105 312.4,112.1 314,134.1 	"/>
	<polygon fill="#98721C" points="313.9,135.7 312.4,137.3 236.9,137.3 235.6,136.1 235.6,113.2 236.9,112.1 312.4,112.1 
		313.9,113.2 	"/>
	<polygon opacity="0.1" fill="#3C2415" points="313.9,133.5 313.9,113.2 312.4,112.1 291.2,105 275.3,105 275.3,137.3 312.4,137.3 
		313.9,135.7 313.9,134.1 314,134.1 	"/>
	<circle fill="#FFFFFF" cx="250.1" cy="123.9" r="2"/>
	<rect x="302.3" y="119" fill="#454547" width="1.9" height="11.7"/>
	<rect x="299" y="119" fill="#454547" width="1.9" height="11.7"/>
	<rect x="295.7" y="119" fill="#454547" width="1.9" height="11.7"/>
	<rect x="292.4" y="119" fill="#454547" width="1.9" height="11.7"/>
	<rect x="289.1" y="119" fill="#454547" width="1.9" height="11.7"/>
	<polygon points="304.2,119 304.2,119 302.3,119 302.3,121.6 	"/>
	<polygon points="300.9,119 300.9,119 299,119 299,121.6 	"/>
	<polygon points="297.6,119 297.6,119 295.7,119 295.7,121.6 	"/>
	<polygon points="294.3,119 294.3,119 292.4,119 292.4,121.6 	"/>
	<polygon points="291,119 291,119 289.1,119 289.1,121.6 	"/>
	<rect x="305.6" y="119" fill="#454547" width="1.9" height="11.7"/>
	<polygon points="307.5,119 307.5,119 305.6,119 305.6,121.6 	"/>
	<rect x="285.7" y="119" fill="#454547" width="1.9" height="11.7"/>
	<polygon points="287.6,119 287.6,119 285.7,119 285.7,121.6 	"/>
</g>
<g>
	<path fill="#939598" d="M235.4,154.1l0.9-1.1c0.6,0.5,1.3,0.8,2.1,0.8c0.6,0,1-0.2,1-0.7v0c0-0.4-0.2-0.6-1.4-0.9
		c-1.4-0.4-2.3-0.8-2.3-2.1v0c0-1.3,1-2.1,2.4-2.1c1,0,1.9,0.3,2.6,0.9l-0.8,1.2c-0.6-0.4-1.2-0.7-1.8-0.7s-0.9,0.3-0.9,0.6v0
		c0,0.5,0.3,0.6,1.5,0.9c1.4,0.4,2.2,0.9,2.2,2.1v0c0,1.4-1.1,2.2-2.6,2.2C237.3,155.2,236.2,154.8,235.4,154.1z"/>
	<path fill="#939598" d="M242.3,148.1h1.5v2.8h2.8v-2.8h1.5v7h-1.5v-2.8h-2.8v2.8h-1.5V148.1z"/>
	<path fill="#939598" d="M252.3,148h1.4l3,7h-1.6l-0.6-1.6h-3l-0.6,1.6h-1.6L252.3,148z M253.9,152.2l-0.9-2.3l-0.9,2.3H253.9z"/>
	<path fill="#939598" d="M257.8,148.1h2.9c1.7,0,2.7,1,2.7,2.4v0c0,1.6-1.3,2.5-2.8,2.5h-1.2v2.1h-1.5V148.1z M260.5,151.6
		c0.8,0,1.2-0.5,1.2-1.1v0c0-0.7-0.5-1.1-1.2-1.1h-1.2v2.1H260.5z"/>
	<path fill="#939598" d="M264.5,148.1h5.3v1.4H266v1.4h3.3v1.4H266v1.5h3.8v1.4h-5.3V148.1z"/>
	<path fill="#939598" d="M270.7,154.1l0.9-1.1c0.6,0.5,1.3,0.8,2.1,0.8c0.6,0,1-0.2,1-0.7v0c0-0.4-0.2-0.6-1.4-0.9
		c-1.4-0.4-2.3-0.8-2.3-2.1v0c0-1.3,1-2.1,2.4-2.1c1,0,1.9,0.3,2.6,0.9l-0.8,1.2c-0.6-0.4-1.2-0.7-1.8-0.7s-0.9,0.3-0.9,0.6v0
		c0,0.5,0.3,0.6,1.5,0.9c1.4,0.4,2.2,0.9,2.2,2.1v0c0,1.4-1.1,2.2-2.6,2.2C272.6,155.2,271.5,154.8,270.7,154.1z"/>
	<path fill="#939598" d="M277.6,148.1h1.5v2.8h2.8v-2.8h1.5v7h-1.5v-2.8h-2.8v2.8h-1.5V148.1z"/>
	<path fill="#939598" d="M285.2,148.1h1.5v7h-1.5V148.1z"/>
	<path fill="#939598" d="M288.5,148.1h5.3v1.4h-3.8v1.5h3.3v1.4h-3.3v2.7h-1.5V148.1z"/>
	<path fill="#939598" d="M296.7,149.5h-2.1v-1.4h5.8v1.4h-2.1v5.6h-1.5V149.5z"/>
	<path fill="#939598" d="M301.6,148.1h5.3v1.4h-3.7v1.4h3.3v1.4h-3.3v1.5h3.8v1.4h-5.3V148.1z"/>
	<path fill="#939598" d="M308.3,148.1h3.2c0.9,0,1.6,0.2,2,0.7c0.4,0.4,0.6,0.9,0.6,1.6v0c0,1.1-0.6,1.8-1.5,2.2l1.7,2.5h-1.8
		l-1.5-2.2h-1.2v2.2h-1.5V148.1z M311.4,151.5c0.8,0,1.2-0.4,1.2-1v0c0-0.7-0.5-1-1.2-1h-1.5v2H311.4z"/>
</g>
<g>
	<path fill="#939598" d="M125.2,58.1h1.5v7h-1.5V58.1z"/>
	<path fill="#939598" d="M128.5,58.1h1.4l3.3,4.3v-4.3h1.5v7h-1.3l-3.4-4.4v4.4h-1.5V58.1z"/>
	<path fill="#939598" d="M138,59.5h-2.1v-1.4h5.8v1.4h-2.1v5.6H138V59.5z"/>
	<path fill="#939598" d="M142.8,58.1h5.3v1.4h-3.7v1.4h3.3v1.4h-3.3v1.5h3.8v1.4h-5.3V58.1z"/>
	<path fill="#939598" d="M149.5,58.1h3.2c0.9,0,1.6,0.2,2,0.7c0.4,0.4,0.6,0.9,0.6,1.6v0c0,1.1-0.6,1.8-1.5,2.2l1.7,2.5h-1.8
		l-1.5-2.2h-1.2v2.2h-1.5V58.1z M152.6,61.5c0.8,0,1.2-0.4,1.2-1v0c0-0.7-0.5-1-1.2-1h-1.5v2H152.6z"/>
	<path fill="#939598" d="M156.8,58.1h1.4l3.3,4.3v-4.3h1.5v7h-1.3l-3.4-4.4v4.4h-1.5V58.1z"/>
	<path fill="#939598" d="M164.7,58.1h5.3v1.4h-3.7v1.4h3.3v1.4h-3.3v1.5h3.8v1.4h-5.3V58.1z"/>
	<path fill="#939598" d="M173,59.5h-2.1v-1.4h5.8v1.4h-2.1v5.6H173V59.5z"/>
</g>
<g>
	<path fill="#939598" d="M22.9,62.1v-4h1.5v4c0,1.1,0.6,1.7,1.5,1.7s1.5-0.6,1.5-1.7v-4H29V62c0,2.1-1.2,3.2-3.1,3.2
		S22.9,64.1,22.9,62.1z"/>
	<path fill="#939598" d="M30.1,64.1L31,63c0.6,0.5,1.3,0.8,2.1,0.8c0.6,0,1-0.2,1-0.7v0c0-0.4-0.2-0.6-1.4-0.9
		c-1.4-0.4-2.3-0.8-2.3-2.1v0c0-1.3,1-2.1,2.4-2.1c1,0,1.9,0.3,2.6,0.9L34.6,60c-0.6-0.4-1.2-0.7-1.8-0.7s-0.9,0.3-0.9,0.6v0
		c0,0.5,0.3,0.6,1.5,0.9c1.4,0.4,2.2,0.9,2.2,2.1v0c0,1.4-1.1,2.2-2.6,2.2C32,65.2,30.9,64.8,30.1,64.1z"/>
	<path fill="#939598" d="M37,58.1h5.3v1.4h-3.7v1.4h3.3v1.4h-3.3v1.5h3.8v1.4H37V58.1z"/>
	<path fill="#939598" d="M43.7,58.1h3.2c0.9,0,1.6,0.2,2,0.7c0.4,0.4,0.6,0.9,0.6,1.6v0c0,1.1-0.6,1.8-1.5,2.2l1.7,2.5h-1.8
		l-1.5-2.2h-1.2v2.2h-1.5V58.1z M46.8,61.5c0.7,0,1.2-0.4,1.2-1v0c0-0.7-0.5-1-1.2-1h-1.5v2H46.8z"/>
</g>
<line fill="none" stroke="#808285" stroke-miterlimit="10" x1="274.8" y1="72.9" x2="274.8" y2="96.6"/>
<g>
</g>
<g>
</g>
<g>
</g>
<g>
</g>
<g>
</g>
<g>
</g>
</svg>
